<svg width="22" height="22" viewBox="0 0 22 22" fill="none" xmlns="http://www.w3.org/2000/svg">
<path fill-rule="evenodd" clip-rule="evenodd" d="M7.31144 9.00007H3.26C2.66553 8.99551 2.09344 9.21152 1.66962 9.60056C1.24577 9.98959 1.0049 10.5198 1 11.0746V18.9259C1.011 20.0808 2.02263 21.0088 3.26 20.9991H7.31144C7.90587 21.0038 8.47801 20.7878 8.90187 20.3988C9.32573 20.0097 9.56658 19.4795 9.57144 18.9246V11.0746C9.56658 10.5198 9.32573 9.98959 8.90187 9.60056C8.47801 9.21152 7.90587 8.99551 7.31144 9.00007Z" stroke="#474747" stroke-width="1.2" stroke-linecap="round" stroke-linejoin="round"/>
<path fill-rule="evenodd" clip-rule="evenodd" d="M7.31144 1.0008H3.26C2.04752 0.969421 1.03656 1.85983 1 2.99131V4.34321C1.03656 5.4747 2.04752 6.36511 3.26 6.33371H7.31144C8.52387 6.36511 9.53487 5.4747 9.57144 4.34321V2.99131C9.53487 1.85983 8.52387 0.969421 7.31144 1.0008Z" stroke="#474747" stroke-width="1.2" stroke-linecap="round" stroke-linejoin="round"/>
<path fill-rule="evenodd" clip-rule="evenodd" d="M14.6885 12.9999H18.7385C19.3332 13.0048 19.9056 12.789 20.3298 12.4C20.7539 12.0108 20.9951 11.4804 20.9999 10.9254V3.07531C20.9951 2.52052 20.7542 1.99027 20.3303 1.60122C19.9065 1.21218 19.3343 0.996192 18.7399 1.0008H14.6885C14.094 0.996192 13.5219 1.21218 13.098 1.60122C12.6742 1.99027 12.4333 2.52052 12.4285 3.07531V10.9254C12.4333 11.4802 12.6742 12.0104 13.098 12.3994C13.5219 12.7885 14.094 13.0044 14.6885 12.9999Z" stroke="#474747" stroke-width="1.2" stroke-linecap="round" stroke-linejoin="round"/>
<path fill-rule="evenodd" clip-rule="evenodd" d="M14.6885 20.9992H18.7385C19.9515 21.0314 20.9633 20.1408 20.9999 19.0087V17.6568C20.9633 16.5253 19.9523 15.635 18.7399 15.6663H14.6885C13.476 15.635 12.465 16.5253 12.4285 17.6568V19.0074C12.4642 20.1394 13.4755 21.0306 14.6885 20.9992Z" stroke="#474747" stroke-width="1.2" stroke-linecap="round" stroke-linejoin="round"/>
</svg>
