<svg width="22" height="22" viewBox="0 0 22 22" fill="none" xmlns="http://www.w3.org/2000/svg">
<path d="M15.9139 13.3829C15.914 14.0626 15.778 14.7354 15.5138 15.3621C15.2496 15.9888 14.8625 16.5568 14.3751 17.0327C13.8878 17.5086 13.31 17.883 12.6756 18.134C12.0411 18.3849 11.3628 18.5074 10.6803 18.4942C9.31421 18.4403 8.02314 17.8581 7.08147 16.8713C6.1398 15.8846 5.6218 14.5711 5.63756 13.2101V6.08977C5.63735 6.07966 5.64071 6.0698 5.64706 6.0619C5.6534 6.05401 5.66232 6.04858 5.67227 6.04656C7.40804 5.78597 9.15942 5.64163 10.9146 5.6145C12.5964 5.64092 14.2742 5.7853 15.9356 6.04656C15.9452 6.04864 15.9536 6.05425 15.9593 6.06225C15.9649 6.07026 15.9673 6.08008 15.966 6.08977L15.9139 13.3829Z" stroke="#474747"/>
<path d="M5.63755 8.40548L1.02448 6.0162C1.01714 6.01266 1.01096 6.00713 1.00663 6.00026C1.0023 5.99338 1 5.98543 1 5.97731C1 5.96919 1.0023 5.96124 1.00663 5.95436C1.01096 5.94749 1.01714 5.94196 1.02448 5.93843L10.7844 1H10.8235L20.553 5.88658C20.5604 5.89012 20.5665 5.89564 20.5709 5.90252C20.5752 5.9094 20.5775 5.91735 20.5775 5.92546C20.5775 5.93358 20.5752 5.94153 20.5709 5.94841C20.5665 5.95529 20.5604 5.96081 20.553 5.96435L15.966 8.40548" stroke="#474747"/>
<path d="M5.63759 11.0801H4.80003C4.80003 11.0801 3.52417 11.0801 3.52417 13.033C3.52417 14.8347 4.79569 14.8347 4.79569 14.8347L5.88495 14.8131" stroke="#474747"/>
<path d="M15.9095 11.3003H16.7471C16.7471 11.3003 18.049 11.3003 18.049 13.2575C18.049 15.0592 16.7731 15.0592 16.7731 15.0592H15.6274" stroke="#474747"/>
<path d="M19.9976 16.6318V6.25806" stroke="#474747"/>
<path d="M19.9976 18.6323C20.5512 18.6323 21 18.1855 21 17.6343C21 17.0831 20.5512 16.6362 19.9976 16.6362C19.4439 16.6362 18.9951 17.0831 18.9951 17.6343C18.9951 18.1855 19.4439 18.6323 19.9976 18.6323Z" stroke="#474747"/>
<path d="M13.5054 17.7078V21H8.35425V17.8892" stroke="#474747"/>
<path d="M15.9661 10.1899C14.3037 9.89118 12.617 9.74654 10.9278 9.7578C9.15425 9.72279 7.38176 9.86756 5.6377 10.1899" stroke="#474747"/>
</svg>
