<svg width="20" height="20" viewBox="0 0 20 20" fill="none" xmlns="http://www.w3.org/2000/svg">
<path d="M19.9347 17.1133L15.5758 1.39588C15.3463 0.593878 14.5982 0.0149148 13.7097 0.0149148C13.5329 0.0149148 13.3623 0.0379649 13.1995 0.0806753L13.2129 0.0779635L11.1797 0.604047C10.9516 0.667774 10.7523 0.764042 10.5762 0.888783L10.5818 0.885394C10.2379 0.351853 9.63506 0.00203383 8.94659 0H6.84259C6.28886 0.000677943 5.78988 0.228467 5.44038 0.591844L5.43898 0.5932C5.08808 0.229145 4.58909 0.00135592 4.03537 0.000677975H1.92996C0.864622 0.00203386 0.00140361 0.835904 0 1.86502V18.1357C0.00140361 19.1648 0.864622 19.9986 1.92996 20H4.03537C4.58909 19.9986 5.08808 19.7715 5.43757 19.4082L5.43898 19.4068C5.78988 19.7715 6.28886 19.9986 6.84259 20H8.94659C10.0119 19.9986 10.8751 19.1648 10.8766 18.1357V6.71367L14.1743 18.6048C14.4038 19.4061 15.1512 19.9844 16.0383 19.9858H16.0418C16.218 19.9858 16.3885 19.9627 16.5506 19.9193L16.5373 19.9227L18.5711 19.3973C19.4007 19.1763 20 18.4536 20 17.596C20 17.4252 19.9761 17.2591 19.9312 17.1018L19.9347 17.1147V17.1133ZM11.6949 5.73472L15.4214 4.77001L18.0553 14.266L14.328 15.23L11.6949 5.73472ZM11.4513 1.58706L13.4838 1.06098C13.5518 1.04268 13.6304 1.03183 13.7118 1.03183C14.1154 1.03183 14.455 1.29555 14.5568 1.65418L14.5582 1.66028L15.1484 3.78835L11.4212 4.75306L10.8751 2.78363V2.0684C10.9825 1.83316 11.1903 1.65689 11.445 1.58842L11.4513 1.58706ZM6.84188 1.01759H8.94589C9.43013 1.01827 9.82244 1.39724 9.82314 1.86502V4.06766L5.96463 4.06834V1.86502C5.96533 1.39724 6.35764 1.01827 6.84188 1.01759ZM4.91192 14.9154H1.052V5.08525L4.91192 5.08457V14.9154ZM5.96463 5.08525L9.82314 5.08457V14.9154H5.96463V5.08525ZM1.92926 1.01759H4.03467C4.51891 1.01827 4.91122 1.39724 4.91192 1.86502V4.06766L1.052 4.06834V1.86502C1.05271 1.39724 1.44501 1.01827 1.92926 1.01759ZM4.03467 18.9831H1.92926C1.44501 18.9824 1.05271 18.6034 1.052 18.1357V15.9323H4.91192V18.1357C4.91122 18.6034 4.51891 18.9824 4.03467 18.9831ZM8.94589 18.9831H6.84188C6.35764 18.9824 5.96533 18.6034 5.96463 18.1357V15.9323H9.82314V18.1357C9.82244 18.6034 9.43013 18.9824 8.94589 18.9831ZM18.8287 18.0177C18.7136 18.2109 18.5269 18.3533 18.3044 18.4123L18.2981 18.4136L16.2643 18.939C16.1969 18.9566 16.1197 18.9668 16.0404 18.9668C15.6369 18.9668 15.2965 18.7045 15.1926 18.3465L15.1912 18.3404L14.601 16.2117L18.3283 15.2476L18.9185 17.3764C18.9375 17.4414 18.948 17.5167 18.948 17.594C18.948 17.7499 18.9038 17.8963 18.8266 18.0211L18.8287 18.0177Z" fill="#474747"/>
</svg>
